<svg id="Livello_1" data-name="Livello 1" xmlns="http://www.w3.org/2000/svg" viewBox="0 0 500 500"><defs><style>.cls-1{fill:#e2e2e0;}</style></defs><title>TOOLS30</title><circle class="cls-1" cx="215.5" cy="255.5" r="136.5"/><path d="M213.85,323.54,141,395.22l-24.77,6.13-6-5.67,7.09-24.31,44-44.65c-2.74-1.67-5.43-3.39-8-5.25l-43.49,44.14-.84.85-9.36,32.12,14,13.14,32.25-8,73.5-72.29C217.47,328.79,215.69,326.14,213.85,323.54Z"/><path d="M322.33,246.65c1.68,0,3.38-.06,5.09-.19-.82-2.86-1.58-5.74-2.13-8.68a4.65,4.65,0,0,1-.08-.61c-.95,0-1.9.07-2.88.07H301.6l-82,80.65q2.79,3.87,5.42,7.86l38.17-37.53,19.57,19.56-14.1,14.11L305.73,359a53,53,0,0,1,5.48-7.61l-27.46-27.46,21.57-21.57,8.34,8.35q3.54-3.23,7.13-6.37L303.52,287l-14.11,14.11L269.9,281.61l35.54-35Z"/><path d="M274.84,159.34c-6.82,9.36-8.94,20.58-8.94,30.88V207.1l-35,35.52-57.1-57.1,15-15-15.65-9.39c-1.38,3.13-2.38,6.45-4.07,9.44l6.35,3.81L155.77,194l-23.23-38.71,4.22-4.21,8.94,5.36a34.64,34.64,0,0,1,2.49-10.4l-14.69-8.81-14.6,14.6,33.21,55.34,15-15.05,57.15,57.16L201.92,272a3.71,3.71,0,0,1,2.1,3.48,4.63,4.63,0,0,1-.73,2.28c.14,0,.16.31-.32.7a2.42,2.42,0,0,0,0,.46c.2,1.69.22,3.32.42,5l71.9-73V190.22c0-9.47,2-17.3,6-23.54C279.13,164.25,277,161.79,274.84,159.34Z"/><path d="M332.78,195.12l-14.29-14.88,18.06-41.75h-7.17c-14.07,0-25.15,2-33.85,5.46l4.31,8.61a77.12,77.12,0,0,1,22.29-4.18l-14.77,34,23.33,24.06,33.74-15.81q-1.44,23.4-12.19,35.08a3.84,3.84,0,0,1,.53.65c.57.86,1.13,1.71,1.67,2.57a4,4,0,0,1,.71,1l.48,1c.56.94,1.09,1.9,1.59,2.87l.23.4c9.77-9.37,16.61-25.15,16.61-51v-7.4Z"/><path d="M348,331.48a86.06,86.06,0,0,1-7.34,6.16L388,385l-21.56,21.56-32.72-32.71c-2.43,1.91-4.89,3.83-7.39,5.7l38.31,38.32L399.52,383Z"/><path d="M325.72,365.86a41.7,41.7,0,0,1-3.07,5.66c1.72-1.19,3.46-2.37,5.22-3.52Z"/></svg>