<svg id="Livello_1" data-name="Livello 1" xmlns="http://www.w3.org/2000/svg" viewBox="0 0 500 500"><defs><style>.cls-1{fill:#e2e2e0;}</style></defs><title>MAIL0</title><polygon class="cls-1" points="434.88 213.47 305.48 296.95 176.08 213.47 434.88 213.47"/><polygon class="cls-1" points="445.62 217.38 445.62 377.53 164.38 377.53 164.38 217.38 305 308.11 445.62 217.38"/><path class="cls-1" d="M455,204.09V386.91H155V204.09Zm-9.38,173.44V217.38L305,308.11,164.38,217.38V377.53ZM305.48,297l129.4-83.48H176.08Z"/><path d="M103.38,189.38,244,280.11l51-32.91c-2.3-2.13-4.57-4.29-6.89-6.41L244.48,269l-129.4-83.48H217.29v-9.38H94v80c3.13.19,6.25.42,9.38.69Z"/><path d="M275.55,349.53H103.38v-53c-3.13.05-6.25.08-9.38.09v62.26H276.44C276.06,355.8,275.8,352.67,275.55,349.53Z"/><path d="M324.1,349.53H302.89c0,1,.08,2.06.13,3.09.15,2.1.32,4.19.49,6.29H324.1Z"/><path d="M242.75,176.09c.25.93.47,1.87.67,2.81a3.69,3.69,0,0,1,3.23,3.79v2.78H373.88l-61.35,39.58a3.82,3.82,0,0,1,1.62,1.51,61.24,61.24,0,0,1,3,6.37l67.5-43.55V349.53H339.29a69.94,69.94,0,0,1,.26,9.38H394V176.09Z"/></svg>