<svg id="Livello_1" data-name="Livello 1" xmlns="http://www.w3.org/2000/svg" viewBox="0 0 500 500"><defs><style>.cls-1{fill:#e2e2e0;}</style></defs><title>MUSIC0</title><rect class="cls-1" x="61" y="55" width="172" height="297"/><path d="M305.31,244.06H209.45a4.45,4.45,0,0,1-2.08,2.59,3.57,3.57,0,0,1-3.39,3.74,1.37,1.37,0,0,1-.17.17v.75a3.73,3.73,0,0,1-.65,2.13H305.31V370.63H280.22c.15,3.12.32,6.24.45,9.37h34V168.78l-9.38.7Z"/><path d="M229.92,80v9.38h75.39v9.37H164.69V89.38H204c0-.12,0-.23,0-.34a3.74,3.74,0,0,1-1-2.7V80H155.31V380h91.2c.07-2.92.27-5.83.34-8.82a4.58,4.58,0,0,1,0-.55h-82.2V253.44h19.89c-.1-1-.21-2.07-.31-3.11a23.74,23.74,0,0,0-2.15-6.27H164.69V108.13H305.31v38.3h9.38V80Z"/><path d="M249.33,348.2A39.88,39.88,0,1,1,266.51,333c2.79,1.44,5.54,2.93,8.2,4.57a49.29,49.29,0,1,0-18,17.35A33.73,33.73,0,0,1,249.33,348.2Z"/><path d="M232.66,295.63a16.41,16.41,0,1,0,16.4,16.4A16.42,16.42,0,0,0,232.66,295.63Zm0,23.43a7,7,0,1,1,7-7A7,7,0,0,1,232.66,319.06Z"/></svg>