<svg id="Livello_1" data-name="Livello 1" xmlns="http://www.w3.org/2000/svg" viewBox="0 0 500 500"><defs><style>.cls-1{fill:#e2e2e0;}</style></defs><title>SMARTPHONE0</title><rect class="cls-1" x="153" y="92" width="178" height="280"/><path d="M209.69,221.53V164.88H312c-.4-3-.84-6-.94-9,0-.13,0-.24,0-.36H209.69V127.38h18.42a65.8,65.8,0,0,1-2-9.38h-25.8V221.54c2.91,0,5.81-.06,8.72-.06A4.65,4.65,0,0,1,209.69,221.53Z"/><path d="M311.27,408.63H209.69V361.75h104c-.28-2.76-.6-5.51-.82-8.27,0-.11-.07-.23-.1-.34a3.64,3.64,0,0,1-.15-.76H209.69V253.22l-9.38,0V418h111.5C311.61,414.88,311.41,411.75,311.27,408.63Z"/><path d="M248,118c0,.22.09.44.14.67.22.65.45,1.3.73,1.94a4.27,4.27,0,0,1,.34,2.23,4.19,4.19,0,0,1,.21,1.37,5.83,5.83,0,0,1-.6,2.52,3.19,3.19,0,0,1-.43.65H350.31V155.5H332.48c.27,3.12.54,6.25.7,9.38h17.13v187.5h-9.22c.65,3.11,1.24,6.24,1.83,9.37h7.39v46.88H328.12c.54,3.11,1,6.23,1.36,9.37h30.21V118Z"/><rect x="261.25" y="136.75" width="37.5" height="9.38"/><path d="M280,370.25a14.07,14.07,0,1,0,14.07,14.06A14.08,14.08,0,0,0,280,370.25ZM280,389a4.69,4.69,0,1,1,4.69-4.69A4.69,4.69,0,0,1,280,389Z"/></svg>