<svg id="Livello_1" data-name="Livello 1" xmlns="http://www.w3.org/2000/svg" viewBox="0 0 500 500"><defs><style>.cls-1{fill:#e2e2e0;}</style></defs><title>NORD0</title><circle class="cls-1" cx="278.5" cy="295.5" r="136.5"/><path d="M130.17,307.28a126.93,126.93,0,0,1-8.48-41.45H141.6V256.5H121.69a126.44,126.44,0,0,1,37.18-85.38,128.59,128.59,0,0,1,23.19-18.39c-1.58-1.85-3.21-3.66-4.87-5.45a137.81,137.81,0,0,0-23.55,18.89A137,137,0,0,0,123,312.84Q126.55,310,130.17,307.28Z"/><path d="M199.11,378.42a128.19,128.19,0,0,1-57.89-49.25c-1.74,1.42-3.48,2.84-5.32,4.14a3.64,3.64,0,0,1-2.31.75,138.09,138.09,0,0,0,20,25.4,136.47,136.47,0,0,0,39.88,27.76Q196.33,382.83,199.11,378.42Z"/><path d="M284.85,383.36a127.44,127.44,0,0,1-31.26,5V368.49h-9.33V388.4a127.27,127.27,0,0,1-37.54-7l-5.73,9a137.66,137.66,0,0,0,89.83,3C288.79,390.07,286.83,386.71,284.85,383.36Z"/><path d="M356.72,177a74.16,74.16,0,0,1-4.57,7.67,4.57,4.57,0,0,1-.74.83,126.31,126.31,0,0,1,24.76,71H356.25v9.33h19.92A126.43,126.43,0,0,1,339,351.21a128.7,128.7,0,0,1-12.73,11.16,3.87,3.87,0,0,1,1.38,2c.07.23.15.46.23.69,1.6,2.28,3.16,4.58,4.66,6.93a139.9,139.9,0,0,0,14.42-12.56A136.68,136.68,0,0,0,356.72,177Z"/><path d="M329.41,160.27a45.62,45.62,0,0,1,3.18-6.6A135.22,135.22,0,0,0,278.21,129c0-.49.08-1,.08-1.49a28,28,0,0,0-56,0c0,.5.05,1,.08,1.49a135.39,135.39,0,0,0-21.3,6.28c.87,2.27,1.7,4.55,2.46,6.85a127.13,127.13,0,0,1,40.73-8.19v19.91h9.33V133.93a126.29,126.29,0,0,1,75.68,28.42A3.29,3.29,0,0,1,329.41,160.27Zm-79.12-34.14a139.14,139.14,0,0,0-18.66,1.29,18.66,18.66,0,0,1,37.32,0A139.14,139.14,0,0,0,250.29,126.13Z"/><path d="M272,277.94,230.5,236.43l71.7-30.2-4.83,11.49a29.09,29.09,0,0,1,9.33,1.89l8.55-20.31-6.11-6.11-88.66,37.33-2.54,2.61L211,251a79.25,79.25,0,0,0,6.8,8.27L224,243.18l41.22,41.21-67.45,26.23,12.78-32.85-.87-.8a4,4,0,0,1-7.3-.64l-.11-.3a7,7,0,0,1-.62-.86l-.07-.06-16.34,42,6,6,84-32.66,2.61-2.54,12.29-29.18a90.39,90.39,0,0,0-8.08-4.89Z"/></svg>